<svg xmlns="http://www.w3.org/2000/svg" viewBox="0 0 144.616 144.643"><defs><style>.a{fill:#4dbaf6;}.b{fill:#72d8ff;}.c{fill:#ff5d5d;}.d{fill:#a0e557;}.e{fill:#ee723c;}.f{fill:#f59d32;}</style></defs><g transform="translate(-0.501 0.001)"><path class="a" d="M270.463,105.1c.259-.053.523-.1.786-.141-.262-.032-.523-.062-.786-.09q-.394.042-.787.09C269.94,105,270.2,105.045,270.463,105.1Zm0,0" transform="translate(-193.131 -75.242)"/><path class="a" d="M151.553,205.737a22.3,22.3,0,0,1-3.57-12.129v-41a22.3,22.3,0,0,1,3.57-12.129,42.922,42.922,0,0,0,0,65.26Zm0,0" transform="translate(-97.59 -100.792)"/><path class="a" d="M270.463,406.273c-.26.053-.523.1-.787.141q.392.048.787.09c.263-.028.524-.057.786-.09C270.986,406.37,270.722,406.326,270.463,406.273Zm0,0" transform="translate(-193.131 -291.499)"/><path class="a" d="M355.176,140.477a22.3,22.3,0,0,1,3.57,12.129v41a22.3,22.3,0,0,1-3.57,12.128,42.921,42.921,0,0,0,0-65.259Zm0,0" transform="translate(-254.477 -100.792)"/><path class="b" d="M234.009,106.637a22.423,22.423,0,0,0-16.743,21.689v41a22.422,22.422,0,0,0,16.743,21.689,22.422,22.422,0,0,0,16.743-21.689v-41A22.423,22.423,0,0,0,234.009,106.637Zm0,0" transform="translate(-155.527 -76.512)"/><path class="c" d="M82.75,42.156a12.427,12.427,0,0,0,0,22.548,12.427,12.427,0,0,0,0-22.548Zm0,0" transform="translate(-53.848 -30.248)"/><path class="d" d="M82.75,389.992a12.426,12.426,0,0,0,0,22.547,12.426,12.426,0,0,0,0-22.547Zm0,0" transform="translate(-53.848 -279.818)"/><path class="c" d="M430.586,389.992a12.426,12.426,0,0,0,0,22.547,12.427,12.427,0,0,0,0-22.547Zm0,0" transform="translate(-303.418 -279.818)"/><path class="d" d="M430.586,42.156a12.427,12.427,0,0,0,0,22.548,12.427,12.427,0,0,0,0-22.548Zm0,0" transform="translate(-303.418 -30.248)"/><path class="e" d="M472.635,142.024a2.824,2.824,0,1,0-5.1,2.423A67.161,67.161,0,0,1,467,202.77a2.824,2.824,0,1,0,5.056,2.517,72.491,72.491,0,0,0,.581-63.264Zm0,0" transform="translate(-334.496 -100.744)"/><path class="e" d="M11.246,201.961a2.824,2.824,0,0,0,1.339-3.763,67.133,67.133,0,0,1,.639-58.548,2.824,2.824,0,0,0-5.048-2.536,72.5,72.5,0,0,0-.693,63.509,2.82,2.82,0,0,0,3.763,1.339Zm0,0" transform="translate(0 -97.262)"/><path class="f" d="M146.118,28.2a2.828,2.828,0,0,0,1.187-.263l.068-.032A2.825,2.825,0,0,0,145,22.779l-.068.032a2.825,2.825,0,0,0,1.19,5.387Zm0,0" transform="translate(-102.451 -16.156)"/><path class="e" d="M183.511,8.128A66.765,66.765,0,0,1,230.1,12.059a2.824,2.824,0,0,0,2.418-5.1,72.411,72.411,0,0,0-50.526-4.265,2.824,2.824,0,1,0,1.523,5.439Zm0,0" transform="translate(-128.735 0)"/><path class="f" d="M351.22,469.564l-.035.016a2.824,2.824,0,1,0,2.333,5.145.362.362,0,0,1,.036-.017,2.824,2.824,0,0,0-2.334-5.144Zm0,0" transform="translate(-250.423 -336.729)"/><path class="e" d="M191.673,471.645a66.6,66.6,0,0,1-48.113-3.821,2.824,2.824,0,0,0-2.456,5.086,72.27,72.27,0,0,0,52.184,4.147,2.824,2.824,0,0,0-1.616-5.413Zm0,0" transform="translate(-99.736 -335.46)"/><path d="M140.254,94.031a45.751,45.751,0,1,0,45.752,45.751A45.8,45.8,0,0,0,140.254,94.031Zm33.141,68.308a23.87,23.87,0,0,0-7.9-3.586V142.607h14.762A39.854,39.854,0,0,1,173.395,162.339Zm-66.28,0a39.851,39.851,0,0,1-6.862-19.732h14.762v16.146A23.866,23.866,0,0,0,107.115,162.339Zm.132-45.3a24.971,24.971,0,0,0,7.768,2.871v17.052H100.253A39.857,39.857,0,0,1,107.247,117.035ZM143.079,99.9A19.64,19.64,0,0,1,159.3,114.7H143.079ZM137.43,114.7H121.209A19.641,19.641,0,0,1,137.43,99.9Zm0,5.648v16.608H120.664V120.351Zm5.649,0h16.766v16.608H143.079Zm-22.415,22.256H137.43v15.435h-16.6c-.057,0-.112,0-.169,0Zm22.415,21.084h16.464a19.635,19.635,0,0,1-16.464,15.977Zm-5.649,15.977a19.633,19.633,0,0,1-16.464-15.977H137.43Zm22.246-21.626h-16.6V142.607h16.766v15.44C159.789,158.045,159.733,158.042,159.677,158.042Zm5.818-21.083V119.906a24.919,24.919,0,0,0,7.768-2.871,39.854,39.854,0,0,1,6.994,19.923H165.495Zm4.179-24.4a19.375,19.375,0,0,1-4.686,1.683,25.068,25.068,0,0,0-3.368-8.383A40.407,40.407,0,0,1,169.674,112.56Zm-50.784-6.7a25.066,25.066,0,0,0-3.368,8.383,19.354,19.354,0,0,1-4.685-1.683A40.376,40.376,0,0,1,118.89,105.86Zm-8.264,60.919a18.247,18.247,0,0,1,4.746-2.265,25.1,25.1,0,0,0,3.518,9.19A40.4,40.4,0,0,1,110.625,166.779ZM161.62,173.7a25.072,25.072,0,0,0,3.518-9.19,18.308,18.308,0,0,1,4.745,2.265A40.4,40.4,0,0,1,161.62,173.7Zm0,0" transform="translate(-67.446 -67.468)"/><path d="M43.8,58.579a15.25,15.25,0,1,0-15.251-15.25A15.267,15.267,0,0,0,43.8,58.579Zm0-24.852a9.6,9.6,0,1,1-9.6,9.6A9.612,9.612,0,0,1,43.8,33.727Zm0,0" transform="translate(-20.125 -20.147)"/><path d="M43.8,375.914a15.25,15.25,0,1,0,15.25,15.25A15.268,15.268,0,0,0,43.8,375.914Zm0,24.853a9.6,9.6,0,1,1,9.6-9.6A9.613,9.613,0,0,1,43.8,400.767Zm0,0" transform="translate(-20.125 -269.717)"/><path d="M391.637,375.914a15.25,15.25,0,1,0,15.251,15.25A15.267,15.267,0,0,0,391.637,375.914Zm0,24.853a9.6,9.6,0,1,1,9.6-9.6A9.613,9.613,0,0,1,391.637,400.767Zm0,0" transform="translate(-269.696 -269.717)"/><path d="M391.637,58.579a15.25,15.25,0,1,0-15.25-15.25A15.268,15.268,0,0,0,391.637,58.579Zm0-24.852a9.6,9.6,0,1,1-9.6,9.6A9.612,9.612,0,0,1,391.637,33.727Zm0,0" transform="translate(-269.696 -20.147)"/></g></svg>