<svg xmlns="http://www.w3.org/2000/svg" viewBox="0 0 91.502 91.502"><defs><style>.a{fill:#4dbaf6;}.b{fill:#72d8ff;}</style></defs><g transform="translate(-27.058 -26.563)"><path class="a" d="M270.463,105.1c.259-.053.523-.1.786-.141-.262-.032-.523-.062-.786-.09q-.394.042-.787.09C269.94,105,270.2,105.045,270.463,105.1Zm0,0" transform="translate(-193.131 -75.242)"/><path class="a" d="M151.553,205.737a22.3,22.3,0,0,1-3.57-12.129v-41a22.3,22.3,0,0,1,3.57-12.129,42.922,42.922,0,0,0,0,65.26Zm0,0" transform="translate(-97.59 -100.792)"/><path class="a" d="M270.463,406.273c-.26.053-.523.1-.787.141q.392.048.787.09c.263-.028.524-.057.786-.09C270.986,406.37,270.722,406.326,270.463,406.273Zm0,0" transform="translate(-193.131 -291.499)"/><path class="a" d="M355.176,140.477a22.3,22.3,0,0,1,3.57,12.129v41a22.3,22.3,0,0,1-3.57,12.128,42.921,42.921,0,0,0,0-65.259Zm0,0" transform="translate(-254.477 -100.792)"/><path class="b" d="M234.009,106.637a22.423,22.423,0,0,0-16.743,21.689v41a22.422,22.422,0,0,0,16.743,21.689,22.422,22.422,0,0,0,16.743-21.689v-41A22.423,22.423,0,0,0,234.009,106.637Zm0,0" transform="translate(-155.527 -76.512)"/><path d="M140.254,94.031a45.751,45.751,0,1,0,45.752,45.751A45.8,45.8,0,0,0,140.254,94.031Zm33.141,68.308a23.87,23.87,0,0,0-7.9-3.586V142.607h14.762A39.854,39.854,0,0,1,173.395,162.339Zm-66.28,0a39.851,39.851,0,0,1-6.862-19.732h14.762v16.146A23.866,23.866,0,0,0,107.115,162.339Zm.132-45.3a24.971,24.971,0,0,0,7.768,2.871v17.052H100.253A39.857,39.857,0,0,1,107.247,117.035ZM143.079,99.9A19.64,19.64,0,0,1,159.3,114.7H143.079ZM137.43,114.7H121.209A19.641,19.641,0,0,1,137.43,99.9Zm0,5.648v16.608H120.664V120.351Zm5.649,0h16.766v16.608H143.079Zm-22.415,22.256H137.43v15.435h-16.6c-.057,0-.112,0-.169,0Zm22.415,21.084h16.464a19.635,19.635,0,0,1-16.464,15.977Zm-5.649,15.977a19.633,19.633,0,0,1-16.464-15.977H137.43Zm22.246-21.626h-16.6V142.607h16.766v15.44C159.789,158.045,159.733,158.042,159.677,158.042Zm5.818-21.083V119.906a24.919,24.919,0,0,0,7.768-2.871,39.854,39.854,0,0,1,6.994,19.923H165.495Zm4.179-24.4a19.375,19.375,0,0,1-4.686,1.683,25.068,25.068,0,0,0-3.368-8.383A40.407,40.407,0,0,1,169.674,112.56Zm-50.784-6.7a25.066,25.066,0,0,0-3.368,8.383,19.354,19.354,0,0,1-4.685-1.683A40.376,40.376,0,0,1,118.89,105.86Zm-8.264,60.919a18.247,18.247,0,0,1,4.746-2.265,25.1,25.1,0,0,0,3.518,9.19A40.4,40.4,0,0,1,110.625,166.779ZM161.62,173.7a25.072,25.072,0,0,0,3.518-9.19,18.308,18.308,0,0,1,4.745,2.265A40.4,40.4,0,0,1,161.62,173.7Zm0,0" transform="translate(-67.446 -67.468)"/></g></svg>