<svg xmlns="http://www.w3.org/2000/svg" viewBox="0 0 81.03 39.382"><defs><style>.a,.c{fill:#fff;}.a,.d{fill-rule:evenodd;}.b{fill:#602f75;}.d{fill:#00e7ff;}</style></defs><g transform="translate(0 -42.195)"><path class="a" d="M54.613,233.174l.773-16.442,11.9-.271,4.3-1.159,10.022.114,4.916-4.021,8.889.069,8.15,5.059,12.589.116L115.4,233.5l-8.486-.124-7.434,3.111" transform="translate(-44.324 -167.912)"/><path class="b" d="M93.943,232.225a1.286,1.286,0,0,1-.5-2.473l7.433-3.112a1.313,1.313,0,0,1,.515-.1l7.237.105.63-14.28-11.257-.1a1.292,1.292,0,0,1-.667-.194L89.5,207.2l-8.062-.063-4.557,3.728a1.483,1.483,0,0,1-.829.29l-9.844-.112-4.127,1.113a1.348,1.348,0,0,1-.306.044l-10.7.242-.716,15.245a1.286,1.286,0,1,1-2.57-.121l.772-16.443a1.287,1.287,0,0,1,1.256-1.226l11.742-.266,4.147-1.119a1.68,1.68,0,0,1,.35-.044l9.555.11,4.554-3.727a1.279,1.279,0,0,1,.824-.29l8.889.069a1.285,1.285,0,0,1,.668.194l7.844,4.87,12.229.112a1.285,1.285,0,0,1,1.274,1.343l-.745,16.857a1.341,1.341,0,0,1-1.3,1.23l-8.217-.119-7.187,3.008a1.29,1.29,0,0,1-.5.1Zm0,0" transform="translate(-38.782 -162.367)"/><path class="c" d="M61.445,233.516l8.816-.026,15.677,13.978a4.367,4.367,0,0,0,4.276.682l15.68-6.819a1.692,1.692,0,0,0,.6-2.9L92.9,223.958l-7.756,5.476a4.56,4.56,0,0,1-5.794-.59l.741.792a4.272,4.272,0,0,1-.054-5.681l10.982-12.165,10.27-.1,7.963,5.1,10.294-.024" transform="translate(-49.869 -168.15)"/><path class="b" d="M83.176,244.171a5.547,5.547,0,0,1-3.632-1.3L64.235,229.222l-8.324.025h0a1.286,1.286,0,0,1,0-2.572l8.816-.027a1.283,1.283,0,0,1,.86.327l15.677,13.979a3.115,3.115,0,0,0,2.906.462L99.844,234.6c.226-.1.383-.235.407-.355a.661.661,0,0,0-.235-.487L87.191,220.1l-6.842,4.832a5.827,5.827,0,0,1-5.839.435,1.274,1.274,0,0,1-.894-.406l-.741-.791a1.28,1.28,0,0,1-.346-.963,5.6,5.6,0,0,1,1.016-5.666l10.981-12.166a1.287,1.287,0,0,1,.942-.425l10.27-.1a1.164,1.164,0,0,1,.707.2l7.644,4.9,9.916-.022h0a1.286,1.286,0,0,1,0,2.572l-10.295.024h0a1.282,1.282,0,0,1-.694-.2l-7.639-4.9-9.322.091-10.6,11.748a3.019,3.019,0,0,0-.288,3.509,3.316,3.316,0,0,0,3.7.057l7.755-5.475a1.285,1.285,0,0,1,1.679.169l13.592,14.472a2.97,2.97,0,0,1-1.022,4.961l-15.681,6.819A5.074,5.074,0,0,1,83.176,244.171Zm0,0" transform="translate(-44.33 -162.595)"/><path class="c" d="M205.188,371.671l-6.508-5.487" transform="translate(-161.247 -293.539)"/><path class="b" d="M199.647,367.41a1.281,1.281,0,0,1-.827-.3l-6.507-5.487a1.286,1.286,0,0,1,1.658-1.967l6.507,5.487a1.286,1.286,0,0,1-.831,2.27Zm0,0" transform="translate(-155.709 -287.992)"/><path class="c" d="M232.17,360.423l-5.978-5.368" transform="translate(-183.576 -284.506)"/><path class="b" d="M226.63,356.176a1.279,1.279,0,0,1-.86-.329l-5.977-5.367a1.286,1.286,0,0,1,1.718-1.914l5.978,5.367a1.286,1.286,0,0,1-.858,2.243Zm0,0" transform="translate(-178.035 -278.973)"/><path class="c" d="M257.031,346.872l-6.468-5.8" transform="translate(-203.355 -273.16)"/><path class="b" d="M251.494,342.62a1.282,1.282,0,0,1-.86-.329l-6.467-5.8a1.286,1.286,0,0,1,1.718-1.914l6.468,5.8a1.286,1.286,0,0,1-.859,2.243Zm0,0" transform="translate(-197.818 -267.621)"/><path class="d" d="M6.828,218.492h10.29V242.93H6.828Zm0,0" transform="translate(-5.542 -173.673)"/><path class="b" d="M11.576,238.678H1.286A1.286,1.286,0,0,1,0,237.391V212.953a1.285,1.285,0,0,1,1.286-1.286h10.29a1.285,1.285,0,0,1,1.286,1.286v24.438A1.285,1.285,0,0,1,11.576,238.678Zm-9-2.572h7.717V214.24H2.572Zm0,0" transform="translate(0 -168.134)"/><path class="a" d="M29.881,315.353a1.286,1.286,0,1,1-1.286-1.286A1.286,1.286,0,0,1,29.881,315.353Zm0,0" transform="translate(-22.163 -251.241)"/><path class="b" d="M23.053,312.384a2.573,2.573,0,1,1,2.572-2.572A2.576,2.576,0,0,1,23.053,312.384Zm0-2.575v0Zm0,0" transform="translate(-16.622 -245.699)"/><path class="d" d="M368.641,218.492h10.29V242.93h-10.29Zm0,0" transform="translate(-299.187 -173.673)"/><path class="b" d="M373.389,238.678H363.1a1.286,1.286,0,0,1-1.286-1.286V212.953a1.285,1.285,0,0,1,1.286-1.286h10.289a1.285,1.285,0,0,1,1.286,1.286v24.438A1.285,1.285,0,0,1,373.389,238.678Zm-9-2.572H372.1V214.24h-7.717Zm0,0" transform="translate(-293.645 -168.134)"/><path class="a" d="M391.693,315.353a1.286,1.286,0,1,1-1.286-1.286A1.286,1.286,0,0,1,391.693,315.353Zm0,0" transform="translate(-315.808 -251.241)"/><path class="b" d="M384.865,312.384a2.573,2.573,0,1,1,2.573-2.572A2.576,2.576,0,0,1,384.865,312.384Zm0-2.575v0Zm0,0" transform="translate(-310.266 -245.699)"/></g></svg>