<svg xmlns="http://www.w3.org/2000/svg" viewBox="0 0 91.131 91.131"><defs><style>.a{fill:#ffd54f;}.b{fill:#ffb300;}.c{fill:#fff9c4;}.d{fill:#fff176;}</style></defs><g transform="translate(0)"><path class="a" d="M45.565,0a45.566,45.566,0,0,0-32.22,77.785,45.268,45.268,0,0,0,32.22,13.346l1.754-45.273Zm0,0"/><path class="b" d="M288.22,13.346A45.268,45.268,0,0,0,256,0V91.131a45.566,45.566,0,0,0,32.22-77.785Zm0,0" transform="translate(-210.435)"/><path class="c" d="M101.745,64A34.185,34.185,0,0,0,68.409,90.629a2.629,2.629,0,0,0,2.278,3.191,4.381,4.381,0,0,1,0,8.708,2.629,2.629,0,0,0-2.278,3.191,34.184,34.184,0,0,0,33.336,26.629L103.5,98Zm0,0" transform="translate(-56.18 -52.609)"/><path class="d" d="M287.058,102.528a4.381,4.381,0,0,1,0-8.708,2.629,2.629,0,0,0,2.278-3.191A34.185,34.185,0,0,0,256,64v68.348a34.184,34.184,0,0,0,33.336-26.629,2.629,2.629,0,0,0-2.278-3.191Zm0,0" transform="translate(-210.435 -52.609)"/><path class="a" d="M207.1,166.637a1.756,1.756,0,0,0,1.753,1.753h2.629l1.754,2.454-1.754,2.8h-2.629a7.01,7.01,0,0,1,0-14.02v-4.382a2.629,2.629,0,0,1,2.629-2.628l1.754,7.886-1.754,4.382h-2.629a1.756,1.756,0,0,0-1.753,1.752Zm0,0" transform="translate(-165.921 -125.453)"/><path class="a" d="M204.476,290.461h7.01l1.754,5.871-1.754,6.4a2.629,2.629,0,0,1-2.629-2.628v-4.382h-4.381a2.629,2.629,0,0,1,0-5.258Zm0,0" transform="translate(-165.921 -238.762)"/><g transform="translate(45.565 27.164)"><path class="b" d="M263.01,164.885a2.629,2.629,0,0,0,0-5.258h-4.381v-4.382A2.628,2.628,0,0,0,256,152.617v12.267Zm0,0" transform="translate(-256 -152.617)"/><path class="b" d="M258.629,241.23H256v5.258h2.629a1.752,1.752,0,1,1,0,3.5H256V262.26a2.628,2.628,0,0,0,2.629-2.628V255.25a7.01,7.01,0,0,0,0-14.02Zm0,0" transform="translate(-256 -225.458)"/></g></g></svg>