<svg xmlns="http://www.w3.org/2000/svg" viewBox="0 0 105.914 87.804"><defs><style>.a{fill:#ff5151;}.b{fill:#87ac34;}</style></defs><g transform="translate(0 -9.797)"><g transform="translate(0 9.797)"><path class="a" d="M91.766,94.828H85.185V90.36a.462.462,0,0,0-.924,0v4.468H75.942V90.36a.462.462,0,1,0-.924,0v4.468H66.7V90.36a.462.462,0,0,0-.924,0v4.468H57.457V90.36a.462.462,0,0,0-.924,0v4.468H48.215V90.36a.462.462,0,0,0-.924,0v4.468H38.972V90.36a.462.462,0,0,0-.924,0v4.468H29.73V90.36a.462.462,0,1,0-.924,0v4.468H20.487V90.36a.462.462,0,1,0-.924,0v4.468H2.773V84.354H6.485a.462.462,0,0,0,0-.924H2.773V75.111H6.485a.462.462,0,1,0,0-.924H2.773V65.869H6.485a.462.462,0,0,0,0-.924H2.773V56.626H6.485a.462.462,0,0,0,0-.924H2.773V47.384H6.485a.462.462,0,0,0,0-.924H2.773V38.141H6.485a.462.462,0,0,0,0-.924H2.773V28.9H6.485a.462.462,0,1,0,0-.924H2.773V19.656H6.485a.462.462,0,1,0,0-.924H2.773V11.183a1.386,1.386,0,1,0-2.773,0V96.215A1.387,1.387,0,0,0,1.386,97.6h90.38a1.386,1.386,0,0,0,0-2.773Z" transform="translate(0 -9.797)"/><rect class="b" width="9.474" height="62.66" transform="translate(14.459 12.573)"/><path class="b" d="M46.868,54.881a23.712,23.712,0,0,1-3.015-5.186H37.394V88.052h9.474Z" transform="translate(-2.832 -12.819)"/><path class="b" d="M68.369,65.277c-.307.013-.614.032-.921.032a23.885,23.885,0,0,1-8.553-1.576V89.114h9.474Z" transform="translate(-4.461 -13.882)"/><path class="b" d="M90.869,70.813l-9.116-9.25c-.117.072-.24.135-.358.2V88.95h9.474Z" transform="translate(-6.165 -13.718)"/><path class="a" d="M108.558,77.029,82.977,51.073a21.113,21.113,0,1,0-3.765,3.766l25.581,25.954a2.662,2.662,0,0,0,3.765-3.764ZM77.464,49.323a15.792,15.792,0,1,1,0-22.332A15.809,15.809,0,0,1,77.464,49.323Z" transform="translate(-3.423 -10.347)"/><path class="b" d="M68.315,36.622c-2.415-1-3.114-1.6-3.114-2.7,0-.874.641-1.9,2.445-1.9a6.161,6.161,0,0,1,3.223.872.462.462,0,0,0,.662-.237l.686-1.812a.46.46,0,0,0-.2-.562,7.634,7.634,0,0,0-3.335-1V27.071a.462.462,0,0,0-.462-.462h-1.7a.462.462,0,0,0-.462.462v2.387a4.88,4.88,0,0,0-4.139,4.8c0,2.883,2.314,4.19,4.809,5.171,2,.807,2.809,1.629,2.809,2.832,0,1.33-1.126,2.224-2.8,2.224a6.832,6.832,0,0,1-3.691-1.1.463.463,0,0,0-.4-.055.452.452,0,0,0-.289.283L61.7,45.443a.462.462,0,0,0,.167.532,8.264,8.264,0,0,0,4,1.273v2.325a.463.463,0,0,0,.462.462h1.727a.462.462,0,0,0,.462-.462V47.105a5.188,5.188,0,0,0,4.331-5.041C72.848,39.544,71.491,37.916,68.315,36.622Z" transform="translate(-4.672 -11.07)"/></g></g></svg>