<svg xmlns="http://www.w3.org/2000/svg" viewBox="0 0 81.12 81.06"><defs><style>.a{fill:#9edbff;}.b{fill:#59c2ff;}</style></defs><g transform="translate(0 -0.5)"><g transform="translate(31.096 1.792)"><path class="a" d="M249.464,212.313V200.145L240,206.229Zm0,0" transform="translate(-230.536 -167.697)"/><path class="a" d="M184,370.229l9.464,6.084,9.464-6.084-9.464-6.084Zm0,0" transform="translate(-184 -303.981)"/><path class="a" d="M249.464,340.313V328.145L240,334.229Zm0,0" transform="translate(-230.536 -274.065)"/><path class="a" d="M184,321.5l9.464,6.084,9.464-6.084v-1.352H184Zm0,0" transform="translate(-184 -267.417)"/><path class="a" d="M202.928,180.2v-4.056H184V180.2l9.464,6.084Zm0,0" transform="translate(-184 -147.753)"/><path class="a" d="M249.464,412.313V400.145L240,406.229Zm0,0" transform="translate(-230.536 -333.897)"/><path class="a" d="M184,442.229h18.928l-9.464-6.084Zm0,0" transform="translate(-184 -363.813)"/><path class="a" d="M184,328.145v12.168l9.464-6.084Zm0,0" transform="translate(-184 -274.065)"/><path class="a" d="M193.464,236.145,184,242.229h18.928Zm0,0" transform="translate(-184 -197.613)"/><path class="a" d="M184,400.145v12.168l9.464-6.084Zm0,0" transform="translate(-184 -333.897)"/><path class="a" d="M184,200.145v12.168l9.464-6.084Zm0,0" transform="translate(-184 -167.697)"/><path class="a" d="M202.928,27.073,193.464,8.145,184,27.073v1.352h18.928Zm0,0" transform="translate(-184 -8.145)"/><path class="a" d="M184,272.145h18.928v8.112H184Zm0,0" transform="translate(-184 -227.529)"/><path class="a" d="M184,128.145h18.928v8.112H184Zm0,0" transform="translate(-184 -107.865)"/></g><path class="b" d="M77.064,58.576V54.52a1.352,1.352,0,0,0-.22-.751l-5.408-8.112a1.35,1.35,0,0,0-1.132-.6H51.376V31.536H63.544v2.7H59.488v2.7H70.3v-2.7H66.248V30.184a1.352,1.352,0,0,0-.22-.751l-5.408-8.112a1.35,1.35,0,0,0-1.132-.6H51.376a1.359,1.359,0,0,0-.135-.6L41.776,1.188a1.409,1.409,0,0,0-2.42,0L29.892,20.116a1.357,1.357,0,0,0-.149.6H21.632a1.352,1.352,0,0,0-1.125.6L15.1,29.434a1.352,1.352,0,0,0-.22.751h-.007V34.24H10.816v2.7H21.632v-2.7H17.576v-2.7H29.744v13.52H10.816a1.353,1.353,0,0,0-1.125.6L4.283,53.77a1.352,1.352,0,0,0-.22.751H4.056v4.056H0v2.7H10.816v-2.7H6.76v-2.7H29.744V80.208A1.352,1.352,0,0,0,31.1,81.56H50.024a1.352,1.352,0,0,0,1.352-1.352V55.872H74.36v2.7H70.3v2.7H81.12v-2.7Zm-44.616-.227,5.611,3.607-5.611,3.607ZM33.6,55.872H47.522L40.56,60.349Zm6.963,7.691,6.963,4.476L40.56,72.517,33.6,68.04Zm-8.112,6.953,5.611,3.607-5.611,3.607Zm8.112,5.215,4.867,3.125H35.706Zm2.5-1.607,5.611-3.607v7.214Zm0-12.168,5.611-3.607v7.214ZM32.448,53.168V47.76H48.672v5.408Zm12.979-8.112H35.706l4.853-3.125Zm-2.366-4.732,5.611-3.607v7.214ZM32.448,43.931V36.717l5.611,3.607ZM58.764,23.424l3.606,5.408H51.376V23.424Zm-10.092,0v5.408H32.448V23.424ZM40.56,4.815,48.512,20.72h-15.9ZM18.75,28.832l3.606-5.408h7.388v5.408Zm29.922,2.7V33.5L40.56,38.717,32.448,33.5V31.536ZM7.934,53.168l3.606-5.408h18.2v5.408Zm43.442,0V47.76h18.2l3.606,5.408Zm0,0" transform="translate(0 0)"/></g></svg>