<svg xmlns="http://www.w3.org/2000/svg" xmlns:xlink="http://www.w3.org/1999/xlink" viewBox="0 0 144.751 144.643"><defs><style>.a{fill:url(#a);}</style><linearGradient id="a" x1="0.5" y1="1.015" x2="0.5" y2="-0.043" gradientUnits="objectBoundingBox"><stop offset="0" stop-color="#e93e3a"/><stop offset="0.35" stop-color="#ed683c"/><stop offset="0.7" stop-color="#f3903f"/><stop offset="1" stop-color="#fdc70c"/></linearGradient></defs><path class="a" d="M137.513,104.131V96.894a2.413,2.413,0,0,0-.393-1.339l-9.65-14.475a2.409,2.409,0,0,0-2.019-1.073H91.675V55.881h21.713v4.825H106.15v4.825h19.3V60.706h-7.238V53.468a2.413,2.413,0,0,0-.393-1.339l-9.65-14.475a2.409,2.409,0,0,0-2.019-1.073H91.675a2.425,2.425,0,0,0-.241-1.079L74.546,1.727a2.514,2.514,0,0,0-4.318,0L53.34,35.5a2.421,2.421,0,0,0-.265,1.079H38.6a2.413,2.413,0,0,0-2.007,1.073l-9.65,14.475a2.413,2.413,0,0,0-.393,1.339h-.012v7.238H19.3v4.825H38.6V60.706H31.363V55.881H53.075V80.006H19.3a2.413,2.413,0,0,0-2.007,1.073L7.643,95.554a2.413,2.413,0,0,0-.393,1.339H7.238v7.238H0v4.825H19.3v-4.825H12.063V99.306H53.075v43.425a2.413,2.413,0,0,0,2.413,2.413H89.263a2.413,2.413,0,0,0,2.413-2.413V99.306h41.013v4.825h-7.238v4.825h19.3v-4.825ZM57.9,103.726l10.012,6.437L57.9,116.6Zm2.051-4.42H84.8l-12.424,7.988Zm12.424,13.725L84.8,121.019l-12.424,7.988-12.424-7.988ZM57.9,125.439l10.012,6.437L57.9,138.312Zm14.475,9.3,8.685,5.575H63.715Zm4.463-2.868,10.012-6.437v12.873Zm0-21.713,10.012-6.437V116.6ZM57.9,94.481v-9.65H86.85v9.65Zm23.16-14.475H63.715l8.661-5.575Zm-4.222-8.444L86.85,65.126V78ZM57.9,78V65.126l10.012,6.437Zm46.959-36.593,6.434,9.65H91.675v-9.65Zm-18.009,0v9.65H57.9v-9.65ZM72.375,8.2l14.19,28.381H58.185ZM33.457,51.056l6.434-9.65H53.075v9.65ZM86.85,55.881v3.507L72.375,68.694,57.9,59.388V55.881Zm-72.693,38.6,6.434-9.65H53.075v9.65Zm77.518,0v-9.65H124.16l6.434,9.65Zm0,0" transform="translate(0 -0.5)"/></svg>