<svg xmlns="http://www.w3.org/2000/svg" viewBox="0 0 37.291 24.168"><defs><style>.a{fill:#b5fcff;}.b{fill:#71f6fc;}.c{fill:#ff2c5c;}.d{fill:#e62753;}</style></defs><g transform="translate(-22.5 0)"><path class="a" d="M239.685,35.258h11.36a3.683,3.683,0,0,1,3.685,3.682v8.867a3.684,3.684,0,0,1-3.685,3.682h-3.594c-.28,4.719-3.491,4.5-4.768,4.223a.1.1,0,0,1,0-.187c2.45-.439,1.388-4.036,1.388-4.036h-4.389A3.684,3.684,0,0,1,236,47.807V38.94a3.683,3.683,0,0,1,3.685-3.682Zm0,0" transform="translate(-195.568 -32.296)"/><path class="b" d="M387.645,35.258h-2.52a3.683,3.683,0,0,1,3.685,3.682v8.867a3.684,3.684,0,0,1-3.685,3.682h2.52a3.684,3.684,0,0,0,3.685-3.682V38.94A3.683,3.683,0,0,0,387.645,35.258Zm0,0" transform="translate(-332.168 -32.296)"/><path class="a" d="M45.045,7.5H33.685A3.684,3.684,0,0,0,30,11.182v8.867a3.683,3.683,0,0,0,3.685,3.682h3.593c.28,4.719,3.491,4.5,4.768,4.223a.1.1,0,0,0,0-.187c-2.45-.439-1.388-4.037-1.388-4.037h4.389a3.684,3.684,0,0,0,3.685-3.682V11.182A3.684,3.684,0,0,0,45.045,7.5Zm0,0" transform="translate(-6.87 -6.87)"/><path class="b" d="M181.645,7.5h-2.52a3.684,3.684,0,0,1,3.685,3.682v8.867a3.684,3.684,0,0,1-3.685,3.682h2.52a3.683,3.683,0,0,0,3.685-3.682V11.182A3.684,3.684,0,0,0,181.645,7.5Zm0,0" transform="translate(-143.47 -6.87)"/><path class="c" d="M89.915,56.973c0,1.8-1.428,3.918-4.955,5.783a.544.544,0,0,1-.505,0c-3.527-1.865-4.955-3.984-4.955-5.783A2.765,2.765,0,0,1,82.1,54a3.216,3.216,0,0,1,2.306.985.42.42,0,0,0,.594,0A3.216,3.216,0,0,1,87.311,54,2.765,2.765,0,0,1,89.915,56.973Zm0,0" transform="translate(-52.212 -49.464)"/><path class="d" d="M130.363,54a3.117,3.117,0,0,0-1.346.3,3.014,3.014,0,0,1,1.43,2.673c0,1.617-1.155,3.492-3.947,5.209.315.194.65.385,1.007.574a.544.544,0,0,0,.505,0c3.527-1.865,4.955-3.984,4.955-5.783A2.765,2.765,0,0,0,130.363,54Zm0,0" transform="translate(-95.265 -49.464)"/><path d="M287.63,91.518h8.9a.63.63,0,1,0,0-1.26h-8.9a.63.63,0,1,0,0,1.26Zm0,0" transform="translate(-242.285 -82.677)"/><path d="M287.63,121.518h8.9a.63.63,0,1,0,0-1.26h-8.9a.63.63,0,1,0,0,1.26Zm0,0" transform="translate(-242.285 -110.157)"/><path d="M287.63,151.518h8.9a.63.63,0,1,0,0-1.26h-8.9a.63.63,0,1,0,0,1.26Zm0,0" transform="translate(-242.285 -137.638)"/><path d="M26.815,17.491h3.017a4.994,4.994,0,0,0,1.742,3.569,4.066,4.066,0,0,0,2.493.777A5.925,5.925,0,0,0,35.31,21.7a.725.725,0,0,0-.026-1.423,1.126,1.126,0,0,1-.822-.521,3.552,3.552,0,0,1-.177-2.265h3.89a4.293,4.293,0,0,0,1.911-.447,4.347,4.347,0,0,0,4.032,2.778h3.889a3.548,3.548,0,0,1-.177,2.266,1.126,1.126,0,0,1-.823.521.727.727,0,0,0-.6.7.72.72,0,0,0,.572.723,5.922,5.922,0,0,0,1.242.136,4.068,4.068,0,0,0,2.494-.777,4.994,4.994,0,0,0,1.741-3.569h3.017a4.319,4.319,0,0,0,4.315-4.312V6.644a4.318,4.318,0,0,0-4.315-4.312H44.117a4.335,4.335,0,0,0-1.911.446A4.322,4.322,0,0,0,38.175,0H30.4a.63.63,0,0,0,0,1.26h7.779A3.057,3.057,0,0,1,41.23,4.312V13.18a3.057,3.057,0,0,1-3.055,3.052h-4.39a.63.63,0,0,0-.6.451c-.07.235-.654,2.339.208,3.734.023.038.048.075.073.111a2.562,2.562,0,0,1-1.126-.472,4.187,4.187,0,0,1-1.3-3.232.63.63,0,0,0-.629-.593H26.815a3.057,3.057,0,0,1-3.055-3.052V4.312A3.057,3.057,0,0,1,26.815,1.26h.892a.63.63,0,1,0,0-1.26h-.892A4.318,4.318,0,0,0,22.5,4.312v8.867a4.318,4.318,0,0,0,4.315,4.312ZM42.49,13.179V4.312c0-.083,0-.165-.008-.247a3.021,3.021,0,0,1,1.635-.473H55.476a3.057,3.057,0,0,1,3.055,3.052v8.867a3.057,3.057,0,0,1-3.055,3.052H51.883a.63.63,0,0,0-.629.593,4.188,4.188,0,0,1-1.3,3.232,2.562,2.562,0,0,1-1.127.472c.025-.036.05-.073.073-.111.862-1.4.278-3.5.208-3.734a.63.63,0,0,0-.6-.451H44.117a3.074,3.074,0,0,1-2.955-2.277,4.3,4.3,0,0,0,1.327-3.107Zm0,0" transform="translate(0 0)"/><path d="M72,50.1c0,1.323.687,3.905,5.29,6.34a1.17,1.17,0,0,0,1.094,0c4.6-2.435,5.29-5.017,5.29-6.34a3.4,3.4,0,0,0-3.234-3.6,3.837,3.837,0,0,0-2.6,1.027,3.837,3.837,0,0,0-2.6-1.027A3.4,3.4,0,0,0,72,50.1Zm3.234-2.343a2.569,2.569,0,0,1,1.857.8,1.05,1.05,0,0,0,1.493,0,2.568,2.568,0,0,1,1.857-.8A2.148,2.148,0,0,1,82.415,50.1c0,1.76-1.668,3.656-4.577,5.2-2.91-1.549-4.577-3.444-4.577-5.2a2.148,2.148,0,0,1,1.974-2.343Zm0,0" transform="translate(-45.342 -42.594)"/></g></svg>