<svg xmlns="http://www.w3.org/2000/svg" viewBox="0 0 34.752 150.128"><defs><style>.a{fill:#ff3a3a;}</style></defs><g transform="translate(-85.333)"><g transform="translate(85.333)"><path class="a" d="M102.709,0a17.378,17.378,0,0,0-15.29,25.633l14.34,25.935a1.086,1.086,0,0,0,1.9,0L118,25.625A17.379,17.379,0,0,0,102.709,0Zm0,26.064a8.688,8.688,0,1,1,8.688-8.688A8.7,8.7,0,0,1,102.709,26.064Z" transform="translate(-85.333)"/></g><g transform="translate(85.333 98)"><path class="a" d="M102.709,0a17.378,17.378,0,0,0-15.29,25.633l14.34,25.935a1.086,1.086,0,0,0,1.9,0L118,25.625A17.379,17.379,0,0,0,102.709,0Zm0,26.064a8.688,8.688,0,1,1,8.688-8.688A8.7,8.7,0,0,1,102.709,26.064Z" transform="translate(-85.333)"/></g></g></svg>