<svg xmlns="http://www.w3.org/2000/svg" viewBox="0 0 144.643 144.643"><defs><style>.a{fill:none;}.b{fill:#dc691d;}.c{fill:#ee723c;}.d{fill:#f59d32;}.e{fill:#4d007e;}</style></defs><circle class="a" cx="45.804" cy="45.804" r="45.804" transform="translate(26.518 26.518)"/><path class="b" d="M60.572,47.339H46.107L53.339,16,22,52.161H36.464L29.232,83.5Z" transform="translate(31.036 22.572)"/><path class="c" d="M58.214,106.429a48.214,48.214,0,1,1,48.214-48.214A48.269,48.269,0,0,1,58.214,106.429Zm0-91.607a43.393,43.393,0,1,0,43.393,43.393A43.443,43.443,0,0,0,58.214,14.821Z" transform="translate(14.107 14.107)"/><path class="d" d="M31.411,71.286A2.412,2.412,0,0,1,29,68.875V54.411a2.411,2.411,0,1,1,4.821,0V68.875A2.412,2.412,0,0,1,31.411,71.286Z" transform="translate(40.911 73.358)"/><path class="d" d="M31.411,19.286A2.412,2.412,0,0,1,29,16.875V2.411a2.411,2.411,0,1,1,4.821,0V16.875A2.412,2.412,0,0,1,31.411,19.286Z" transform="translate(40.911)"/><path class="d" d="M16.875,33.821H2.411a2.411,2.411,0,1,1,0-4.821H16.875a2.411,2.411,0,1,1,0,4.821Z" transform="translate(0 40.911)"/><path class="d" d="M68.875,33.821H54.411a2.411,2.411,0,1,1,0-4.821H68.875a2.411,2.411,0,0,1,0,4.821Z" transform="translate(73.358 40.911)"/><path class="e" d="M30.644,87.321A2.408,2.408,0,0,1,28.3,84.368l6.55-28.386H23.412a2.409,2.409,0,0,1-1.823-3.987L52.929,15.834A2.41,2.41,0,0,1,57.1,17.955l-6.55,28.384H61.983a2.409,2.409,0,0,1,1.823,3.987L32.466,86.487A2.4,2.4,0,0,1,30.644,87.321ZM28.691,51.16h9.185a2.41,2.41,0,0,1,2.348,2.953L35.174,76,56.7,51.16H47.519a2.41,2.41,0,0,1-2.35-2.953l5.053-21.889Z" transform="translate(29.624 21.161)"/><path class="d" d="M57.9,60.312a2.4,2.4,0,0,1-1.7-.706L45.971,49.379a2.41,2.41,0,0,1,3.409-3.409L59.606,56.2a2.411,2.411,0,0,1-1.7,4.115Z" transform="translate(63.855 63.855)"/><path class="d" d="M21.134,23.542a2.4,2.4,0,0,1-1.7-.706L9.2,12.609A2.41,2.41,0,0,1,12.609,9.2L22.838,19.427a2.411,2.411,0,0,1-1.7,4.115Z" transform="translate(11.982 11.982)"/><path class="d" d="M10.905,60.312A2.411,2.411,0,0,1,9.2,56.2L19.429,45.971a2.41,2.41,0,1,1,3.409,3.409L12.609,59.606A2.4,2.4,0,0,1,10.905,60.312Z" transform="translate(11.982 63.855)"/><path class="d" d="M47.675,23.542a2.411,2.411,0,0,1-1.7-4.115L56.2,9.2a2.41,2.41,0,0,1,3.409,3.409L49.379,22.836A2.4,2.4,0,0,1,47.675,23.542Z" transform="translate(63.855 11.982)"/></svg>