<svg xmlns="http://www.w3.org/2000/svg" viewBox="0 0 62.699 62.699"><defs><style>.a{fill:#ffa90b;}.b{fill:#ffb52d;}</style></defs><path class="a" d="M127.675,109.233a3.542,3.542,0,0,0-1.018,3.135l1.337,7.8a3.542,3.542,0,0,1-5.139,3.733l-7-3.681a3.535,3.535,0,0,0-3.252-.022l-.044.022-7,3.681a3.542,3.542,0,0,1-5.139-3.733l1.337-7.8a3.543,3.543,0,0,0-1.018-3.135l-5.665-5.521a3.541,3.541,0,0,1,1.962-6.041l7.829-1.138a3.544,3.544,0,0,0,2.667-1.937l3.5-7.1a3.542,3.542,0,0,1,6.352,0l3.5,7.1a3.543,3.543,0,0,0,2.666,1.937l7.829,1.138a3.542,3.542,0,0,1,1.964,6.041Zm0,0" transform="translate(-82.485 -75.053)"/><path class="b" d="M207.069,109.233a3.542,3.542,0,0,0-1.018,3.135l1.337,7.8a3.542,3.542,0,0,1-5.139,3.733l-7-3.681A3.535,3.535,0,0,0,192,120.2a23.894,23.894,0,0,1-6.588-24.041,3.54,3.54,0,0,0,1.514-1.56l3.5-7.095a3.542,3.542,0,0,1,6.352,0l3.5,7.095a3.543,3.543,0,0,0,2.666,1.937l7.829,1.138a3.542,3.542,0,0,1,1.964,6.041Zm0,0" transform="translate(-161.878 -75.052)"/><path d="M181.921,90.132l-7.829-1.138a2.615,2.615,0,0,1-1.969-1.431l-3.5-7.095a4.468,4.468,0,0,0-8.012,0l-3.5,7.095a2.615,2.615,0,0,1-1.97,1.431l-2.906.422a.925.925,0,0,0,.266,1.832l2.906-.422a4.468,4.468,0,0,0,3.363-2.444l3.5-7.095a2.614,2.614,0,0,1,4.692,0l3.5,7.095a4.468,4.468,0,0,0,3.364,2.444l7.829,1.138a2.616,2.616,0,0,1,1.45,4.462l-5.665,5.522a4.481,4.481,0,0,0-1.285,3.954c1.385,8.156,1.378,7.856,1.378,8.265a2.637,2.637,0,0,1-2.984,2.572.926.926,0,0,0-.27,1.832,4.463,4.463,0,0,0,5.038-5.184c-1.372-8.078-1.375-7.832-1.375-8.24a2.63,2.63,0,0,1,.79-1.873l5.665-5.523A4.466,4.466,0,0,0,181.921,90.132Zm0,0" transform="translate(-132.895 -68.431)"/><path d="M114.452,201c-4.428-2.184-5.084-3.037-6.88-3.037-1.862,0-2.516.9-9.081,4.195a2.618,2.618,0,0,1-3.8-2.758l1.337-7.8a4.481,4.481,0,0,0-1.285-3.954l-5.666-5.522a2.616,2.616,0,0,1,1.45-4.462l1.26-.183a.925.925,0,1,0-.266-1.832l-1.26.183a4.464,4.464,0,0,0-2.476,7.62l5.666,5.522a2.623,2.623,0,0,1,.752,2.316l-1.337,7.8a4.463,4.463,0,0,0,6.482,4.709l7-3.682a2.659,2.659,0,0,1,2.434,0l4.8,2.524a.926.926,0,1,0,.861-1.639Zm0,0" transform="translate(-75.852 -154.133)"/><path d="M252.3,6.3a.925.925,0,0,0,.926-.926V.926a.926.926,0,1,0-1.851,0V5.379A.926.926,0,0,0,252.3,6.3Zm0,0" transform="translate(-220.592 0)"/><path d="M129.111,37.063a.926.926,0,0,0,1.6-.926l-2.226-3.857a.926.926,0,0,0-1.6.926Zm0,0" transform="translate(-111.237 -27.922)"/><path d="M40,124.029,36.139,121.8a.926.926,0,0,0-.926,1.6l3.857,2.226a.926.926,0,1,0,.926-1.6Zm0,0" transform="translate(-30.494 -106.778)"/><path d="M6.3,246.433a.925.925,0,0,0-.926-.926H.926a.926.926,0,0,0,0,1.851H5.379A.926.926,0,0,0,6.3,246.433Zm0,0" transform="translate(0 -215.443)"/><path d="M36.136,352.063l-3.857,2.226a.926.926,0,0,0,.926,1.6l3.857-2.227a.926.926,0,0,0-.926-1.6Zm0,0" transform="translate(-27.92 -308.841)"/><path d="M125.293,430.762a.925.925,0,0,0-1.264.339l-2.227,3.857a.926.926,0,0,0,1.6.926l2.226-3.857A.925.925,0,0,0,125.293,430.762Zm0,0" transform="translate(-106.777 -377.902)"/><path d="M246.433,460.52a.925.925,0,0,0-.926.926V465.9a.926.926,0,1,0,1.851,0v-4.453A.926.926,0,0,0,246.433,460.52Zm0,0" transform="translate(-215.443 -404.125)"/><path d="M353.667,434.036a.926.926,0,0,0-1.6.926l2.226,3.857a.926.926,0,1,0,1.6-.926Zm0,0" transform="translate(-308.842 -380.478)"/><path d="M435.884,359.372l-3.857-2.226a.925.925,0,1,0-.926,1.6c3.993,2.255,3.879,2.351,4.319,2.351A.927.927,0,0,0,435.884,359.372Zm0,0" transform="translate(-377.904 -313.301)"/><path d="M465.9,251.375h-4.453a.926.926,0,1,0,0,1.851H465.9a.926.926,0,1,0,0-1.851Zm0,0" transform="translate(-404.124 -220.592)"/><path d="M434.961,130.714l3.857-2.226a.926.926,0,0,0-.926-1.6l-3.857,2.227a.925.925,0,1,0,.926,1.6Zm0,0" transform="translate(-380.478 -111.237)"/><path d="M357.939,40.458a.925.925,0,0,0,.8-.463l2.227-3.857a.926.926,0,0,0-1.6-.926l-2.226,3.857A.926.926,0,0,0,357.939,40.458Zm0,0" transform="translate(-313.293 -30.494)"/></svg>