<svg xmlns="http://www.w3.org/2000/svg" viewBox="0 0 88.611 97.114"><defs><style>.a{fill:#f7b081;}.b{fill:#efe7e4;}.c{fill:#d8d1d0;}.d{fill:#dd9a76;}.e{fill:#f7cb4f;}.f{fill:#fbab00;}.g{fill:#546f7a;}.h{fill:#465a65;}.i{fill:#353535;}.j{fill:#ffc89f;}</style></defs><g transform="translate(-22.414)"><path class="a" d="M238.491,209.4c-.5-3.074-2.128-6.739-7-6.739a1.425,1.425,0,0,0-1.4,1.186l-.935,5.5a42.433,42.433,0,0,1-1.506,6.155c-1.744,5.289-3.946,8-7.851,9.671-1.876.8-3.4,1.489-4.009,1.765h-7.3a1.425,1.425,0,0,0-1.425,1.425v25.809a1.425,1.425,0,0,0,1.425,1.425h7.107l3.062,2.479a14.531,14.531,0,0,0,9.115,3.227h8.681a1.424,1.424,0,0,0,.7-2.665V230.192h-1.772l2.983-15.031A16.1,16.1,0,0,0,238.491,209.4Z" transform="translate(-149.622 -164.225)"/><path class="b" d="M161.188,317.153H150.118a1.425,1.425,0,0,0-1.425,1.425v30.465a1.425,1.425,0,0,0,1.425,1.425h11.071a1.425,1.425,0,0,0,1.425-1.425V318.578A1.425,1.425,0,0,0,161.188,317.153Z" transform="translate(-102.327 -256.997)"/><path class="c" d="M148.693,462.862v4.253a1.425,1.425,0,0,0,1.425,1.425h11.071a1.425,1.425,0,0,0,1.425-1.425v-4.253Z" transform="translate(-102.327 -375.069)"/><path class="d" d="M325.571,367.6a4.1,4.1,0,0,1,4.1-4.1,4.105,4.105,0,0,1,0-8.21,4.1,4.1,0,1,1,0-8.21,4.1,4.1,0,1,1,0-8.21h-4.657a4.1,4.1,0,1,0,0,8.21,4.1,4.1,0,1,0,0,8.21,4.105,4.105,0,0,0,0,8.21,4.1,4.1,0,1,0,0,8.21h4.657A4.105,4.105,0,0,1,325.571,367.6Z" transform="translate(-241.882 -274.59)"/><path class="e" d="M53.638,65.2a2.649,2.649,0,0,0-2.151-1.813l-6.479-.942-2.9-5.871a2.665,2.665,0,0,0-4.78,0l-2.9,5.871-6.479.942a2.665,2.665,0,0,0-1.477,4.546l4.688,4.57-1.107,6.453a2.662,2.662,0,0,0,3.867,2.81l5.795-3.047,5.795,3.047a2.665,2.665,0,0,0,3.867-2.81L48.276,72.5l4.688-4.57A2.648,2.648,0,0,0,53.638,65.2Z" transform="translate(-2.639 -44.641)"/><path class="f" d="M127.81,98.75l-.144-.021-7.326,7.231a1.6,1.6,0,0,0-.459,1.413l1.726,9.633.232.122a2.665,2.665,0,0,0,3.867-2.81l-1.107-6.453,4.688-4.57a2.664,2.664,0,0,0-1.477-4.545Z" transform="translate(-78.961 -80.003)"/><path class="e" d="M211.666,10.112A2.649,2.649,0,0,0,209.515,8.3l-6.479-.942-2.9-5.871a2.665,2.665,0,0,0-4.78,0l-2.9,5.871-6.479.942a2.665,2.665,0,0,0-1.477,4.546l4.689,4.57-1.107,6.453a2.665,2.665,0,0,0,3.867,2.81l5.795-3.047,5.795,3.047a2.665,2.665,0,0,0,3.867-2.809L206.3,17.414l4.689-4.57A2.65,2.65,0,0,0,211.666,10.112Z" transform="translate(-130.693)"/><path class="f" d="M282.672,61.886a2.648,2.648,0,0,0,1.06-2.607l-1.107-6.453,4.689-4.57a2.665,2.665,0,0,0-1.477-4.546l-.059-.009-7.411,7.218a1.6,1.6,0,0,0-.459,1.413l1.342,7.821.321,1.779.295.155a2.651,2.651,0,0,0,2.807-.2Z" transform="translate(-207.014 -35.413)"/><path class="e" d="M369.4,65.2a2.649,2.649,0,0,0-2.151-1.813l-6.479-.942-2.9-5.871a2.665,2.665,0,0,0-4.78,0l-2.9,5.871-6.479.942a2.665,2.665,0,0,0-1.477,4.546l4.688,4.57-1.107,6.453a2.665,2.665,0,0,0,3.867,2.81l5.795-3.047,5.795,3.047a2.665,2.665,0,0,0,3.867-2.809L364.039,72.5l4.689-4.57A2.649,2.649,0,0,0,369.4,65.2Z" transform="translate(-258.51 -44.641)"/><path class="f" d="M445.724,100.581a2.649,2.649,0,0,0-2.151-1.813l-.115-.017-7.355,7.227a1.6,1.6,0,0,0-.459,1.413l1.557,9.544.4.211a2.665,2.665,0,0,0,3.867-2.809l-1.107-6.453,4.689-4.57A2.649,2.649,0,0,0,445.724,100.581Z" transform="translate(-334.831 -80.02)"/><path class="g" d="M47.791,301.536H23.839a1.425,1.425,0,0,0-1.425,1.425v36.39a1.425,1.425,0,0,0,1.425,1.425H47.791a1.425,1.425,0,0,0,1.425-1.425v-36.39A1.424,1.424,0,0,0,47.791,301.536Z" transform="translate(0 -244.342)"/><path class="h" d="M22.414,479.6v4.04a1.425,1.425,0,0,0,1.425,1.425H47.791a1.425,1.425,0,0,0,1.425-1.425V479.6Z" transform="translate(0 -388.633)"/><circle class="i" cx="2.269" cy="2.269" r="2.269" transform="translate(37.957 85.416)"/><path class="j" d="M357.445,338.865H342.6a4.78,4.78,0,0,0-4.774,4.774v.8a4.779,4.779,0,0,0,4.774,4.774h14.843a4.779,4.779,0,0,0,4.774-4.774v-.8A4.779,4.779,0,0,0,357.445,338.865Z" transform="translate(-255.588 -274.591)"/><path class="a" d="M357.446,356.876H342.6A4.781,4.781,0,0,1,338.224,354a4.748,4.748,0,0,0-.4,1.9v.8a4.779,4.779,0,0,0,4.774,4.774h14.843a4.78,4.78,0,0,0,4.774-4.774v-.8a4.748,4.748,0,0,0-.4-1.9A4.781,4.781,0,0,1,357.446,356.876Z" transform="translate(-255.588 -286.858)"/><path class="j" d="M359.178,378.392H342.6a4.78,4.78,0,0,0-4.774,4.774v.8a4.779,4.779,0,0,0,4.774,4.774h16.576a4.779,4.779,0,0,0,4.774-4.774v-.8A4.779,4.779,0,0,0,359.178,378.392Z" transform="translate(-255.588 -306.621)"/><path class="a" d="M359.178,396.539H342.6a4.781,4.781,0,0,1-4.387-2.893,4.747,4.747,0,0,0-.387,1.881v.8A4.779,4.779,0,0,0,342.6,401.1h16.576a4.779,4.779,0,0,0,4.774-4.774v-.8a4.748,4.748,0,0,0-.387-1.881A4.78,4.78,0,0,1,359.178,396.539Z" transform="translate(-255.588 -318.981)"/><path class="j" d="M357.047,417.92H343a5.174,5.174,0,1,0,0,10.347h14.044a5.174,5.174,0,1,0,0-10.347Z" transform="translate(-255.589 -338.651)"/><path class="a" d="M357.046,435.783H343a5.178,5.178,0,0,1-4.619-2.848,5.17,5.17,0,0,0,4.619,7.5h14.044a5.17,5.17,0,0,0,4.619-7.5A5.178,5.178,0,0,1,357.046,435.783Z" transform="translate(-255.588 -350.818)"/><path class="j" d="M353.18,457.447H343a5.174,5.174,0,0,0,0,10.347H353.18a5.174,5.174,0,1,0,0-10.347Z" transform="translate(-255.588 -370.681)"/><path class="a" d="M353.18,475.322H343a5.178,5.178,0,0,1-4.62-2.85,5.17,5.17,0,0,0,4.62,7.5H353.18a5.17,5.17,0,0,0,4.62-7.5A5.178,5.178,0,0,1,353.18,475.322Z" transform="translate(-255.588 -382.856)"/></g></svg>