<svg xmlns="http://www.w3.org/2000/svg" viewBox="0 0 81.176 81.176"><defs><style>.a{fill:#59c2ff;}</style></defs><path class="a" d="M43.588,3A40.588,40.588,0,1,0,84.176,43.588,40.59,40.59,0,0,0,43.588,3ZM46.97,63.4v7.248H40.206V63.419c-7.2-.961-11.74-5.151-11.994-11.361h7.715c.369,3.091,3.487,5.074,7.979,5.074,4.15,0,7.083-2.009,7.083-4.887,0-2.432-1.9-3.832-6.579-4.837l-4.969-1.055C32.491,44.9,29.085,41.278,29.085,35.464c0-6.19,4.309-10.539,11.121-11.632v-7.3H46.97v7.292c6.616,1.072,11.081,5.358,11.287,11.219H50.752c-.369-3.014-3.173-5.019-7.029-5.019-3.991,0-6.633,1.85-6.633,4.756,0,2.351,1.823,3.7,6.288,4.651l4.6.977c7.664,1.613,10.966,4.915,10.966,10.834C58.944,57.943,54.459,62.374,46.97,63.4Z" transform="translate(-3 -3)"/></svg>