<svg xmlns="http://www.w3.org/2000/svg" viewBox="0 0 157 157"><defs><style>.a{fill:#fff;}</style></defs><path class="a" d="M134.009,22.993A78.5,78.5,0,1,0,22.993,134.011,78.5,78.5,0,0,0,134.009,22.993Zm-3.469,107.548A73.594,73.594,0,1,1,26.462,26.462,73.594,73.594,0,0,1,130.539,130.541Z" transform="translate(0 0)"/><path class="a" d="M203.978,112.916a2.453,2.453,0,0,0-3.81,3.091,63.783,63.783,0,0,1-92.077,87.7,2.453,2.453,0,1,0-3.272,3.656,68.689,68.689,0,0,0,99.159-94.444Z" transform="translate(-72.111 -77.662)"/><path class="a" d="M36.906,100.688a63.782,63.782,0,0,1,106.3-47.542,2.453,2.453,0,1,0,3.272-3.655,68.69,68.69,0,0,0-99.158,94.445,2.453,2.453,0,0,0,3.81-3.091A63.919,63.919,0,0,1,36.906,100.688Z" transform="translate(-22.188 -22.188)"/><path class="a" d="M201.919,164.819c-.091-.686-.971-6.784-3.827-9.887a13.178,13.178,0,0,0-9.162-4.38c-.163-.017-.312-.032-.447-.048l-.11-.011c-11.27-.874-28.283-.884-28.454-.884h-.038c-.17,0-17.184.01-28.451.884l-.11.011c-.134.017-.284.032-.447.048a13.179,13.179,0,0,0-9.161,4.379c-2.854,3.1-3.736,9.2-3.827,9.887l-.005.041a139.815,139.815,0,0,0-.825,14.228v6.536a139.769,139.769,0,0,0,.825,14.23l0,.04c.091.686.971,6.782,3.829,9.881a14.062,14.062,0,0,0,9.311,4.3c.379.049.706.091.929.135q.114.023.23.035c6.5.666,26.833.871,27.723.879.171,0,17.2-.04,28.465-.9q.063,0,.124-.013c.139-.018.293-.033.462-.051a13.209,13.209,0,0,0,9.135-4.383c2.855-3.1,3.736-9.193,3.827-9.879,0-.013,0-.027.005-.041a139.91,139.91,0,0,0,.825-14.23v-6.536a139.832,139.832,0,0,0-.825-14.23C201.923,164.845,201.921,164.832,201.919,164.819Zm-4.077,20.806c0,6.562-.742,13.227-.79,13.645-.185,1.363-1.04,5.53-2.575,7.186l-.027.03a8.391,8.391,0,0,1-6,2.791c-.184.019-.354.037-.509.056-11.084.844-27.872.884-28.012.885-.208,0-20.741-.209-27.139-.843-.354-.065-.735-.114-1.137-.166-1.837-.236-4.354-.56-6.3-2.727l-.028-.03c-1.364-1.471-2.3-5.181-2.574-7.186-.048-.428-.79-7.085-.79-13.644v-6.536c0-6.562.743-13.23.79-13.643.185-1.364,1.041-5.534,2.576-7.2l.025-.028a8.365,8.365,0,0,1,6.015-2.788c.178-.018.343-.035.494-.053,11.078-.855,27.852-.865,28.021-.865h.038c.168,0,16.943.01,28.023.865.151.018.316.035.494.053a8.359,8.359,0,0,1,6.014,2.787l.026.029c1.365,1.474,2.3,5.185,2.576,7.2.048.427.79,7.087.79,13.644Z" transform="translate(-81.161 -103.733)"/><path class="a" d="M244.851,214.527,219.6,199.374a2.453,2.453,0,0,0-3.716,2.1v30.3a2.453,2.453,0,0,0,3.715,2.1l25.254-15.153a2.453,2.453,0,0,0,0-4.206ZM220.789,227.45V205.81l18.033,10.82Z" transform="translate(-149.684 -137.996)"/></svg>