<svg xmlns="http://www.w3.org/2000/svg" viewBox="0 0 43.31 43.311"><defs><style>.a{fill:#fff;}</style></defs><path class="a" d="M43.31,21.655A21.655,21.655,0,1,0,21.655,43.31,21.655,21.655,0,0,0,43.31,21.655Zm-41.341,0A19.686,19.686,0,1,1,21.655,41.342,19.686,19.686,0,0,1,1.969,21.655Z"/><path class="a" d="M230.471,154.82v-12.5H234.6l.652-4.142h-4.776V136.1c0-1.081.354-2.112,1.906-2.112h3.1v-4.134h-4.4c-3.7,0-4.711,2.437-4.711,5.815v2.506h-2.539v4.144h2.539v12.5Z" transform="translate(-207.985 -120.666)"/></svg>