<svg xmlns="http://www.w3.org/2000/svg" viewBox="0 0 45.62 45.62"><defs><style>.a{fill:#fff;}.b{fill:none;stroke:#fff;}</style></defs><g transform="translate(0.5 0.5)"><path class="a" d="M40.907,23.88h-13.3a3.854,3.854,0,0,0-3.85,3.85v13.3a3.854,3.854,0,0,0,3.85,3.85h13.3a3.855,3.855,0,0,0,3.85-3.85V27.73A3.854,3.854,0,0,0,40.907,23.88ZM34.258,41.292a6.913,6.913,0,1,1,6.913-6.913A6.92,6.92,0,0,1,34.258,41.292Zm7.135-12.4a1.636,1.636,0,1,1,1.635-1.636A1.638,1.638,0,0,1,41.393,28.9Z" transform="translate(-11.948 -12.009)"/><path class="a" d="M40.841,36.971a3.992,3.992,0,1,0,3.991,3.991A4,4,0,0,0,40.841,36.971Z" transform="translate(-18.531 -18.592)"/><path class="b" d="M22.31,0A22.31,22.31,0,1,0,44.62,22.31,22.311,22.311,0,0,0,22.31,0ZM35.73,29.02a6.778,6.778,0,0,1-6.771,6.771H15.66A6.778,6.778,0,0,1,8.89,29.02v-13.3A6.778,6.778,0,0,1,15.66,8.95h13.3a6.778,6.778,0,0,1,6.771,6.771Z"/></g></svg>