<svg xmlns="http://www.w3.org/2000/svg" viewBox="0 0 67.664 67.596"><defs><style>.a{fill:#fffffe;}.b{fill:#5ea5ff;}.c{fill:#51565f;}</style></defs><g transform="translate(0 -0.251)"><g transform="translate(0.572 0.87)"><path class="a" d="M66.022,38.217v-22.9a25.51,25.51,0,0,0-10.3-2.29A73.887,73.887,0,0,0,37.4,15.319V65.695A73.886,73.886,0,0,1,55.718,63.4a25.51,25.51,0,0,1,10.3,2.29A35.486,35.486,0,0,1,77.471,63.4a59.487,59.487,0,0,1,17.173,2.29V15.319a16.619,16.619,0,0,0-6.869-1.145V3.87C78.616,7.3,66.022,15.319,66.022,15.319Z" transform="translate(-32.82 -3.87)"/><path class="b" d="M69.671,131.87v44.651a4.593,4.593,0,0,1-4.58,4.58H36.469v-4.58a35.486,35.486,0,0,1,11.449-2.29,59.488,59.488,0,0,1,17.173,2.29V131.87Zm-33.2,44.651v4.58H7.847a4.593,4.593,0,0,1-4.58-4.58V131.87h4.58v44.651a73.887,73.887,0,0,1,18.318-2.29A25.513,25.513,0,0,1,36.469,176.521Z" transform="translate(-3.267 -114.697)"/></g><path class="c" d="M62.4,67.847H5.152A5.131,5.131,0,0,1,0,62.695V18.044a.541.541,0,0,1,.572-.572.541.541,0,0,1,.572.572V62.695A4.057,4.057,0,0,0,5.152,66.7H33.2V63.038a26.32,26.32,0,0,0-9.732-2.061,75.855,75.855,0,0,0-18.2,2.29.688.688,0,0,1-.458-.114A.6.6,0,0,1,4.58,62.7V12.32a.584.584,0,0,1,.458-.572,77.825,77.825,0,0,1,18.433-2.29A24.256,24.256,0,0,1,34,11.861a.613.613,0,0,1,.343.458V57.085c2.862-1.6,12.136-6.869,20.608-9.732V1.672a114.391,114.391,0,0,0-17.4,8.816.589.589,0,0,1-.572-1.03A107.914,107.914,0,0,1,55.413.3c.229-.114.343,0,.572.114a.6.6,0,0,1,.229.458V47.811a.63.63,0,0,1-.343.572C45.8,51.7,34.347,58.573,34.233,58.688a.52.52,0,0,1-.572,0,.613.613,0,0,1-.343-.458V12.777a26.32,26.32,0,0,0-9.732-2.061A74.176,74.176,0,0,0,5.839,12.892V62.122a74.769,74.769,0,0,1,17.746-2.175,23.916,23.916,0,0,1,10.3,2.29,34.82,34.82,0,0,1,11.449-2.29,63.522,63.522,0,0,1,16.6,2.061V12.892a15.9,15.9,0,0,0-1.946-.343c-.343-.114-.572-.343-.458-.687a.5.5,0,0,1,.687-.458c1.488.229,2.4.458,2.4.458a.76.76,0,0,1,.458.572V62.81a.594.594,0,0,1-.229.458.858.858,0,0,1-.572.114,59.726,59.726,0,0,0-16.944-2.29,36.7,36.7,0,0,0-10.877,2.061v3.664h28.05a4.057,4.057,0,0,0,4.007-4.007V18.158a.572.572,0,0,1,1.145,0V62.809A5.285,5.285,0,0,1,62.4,67.847ZM12.021,50.674a.584.584,0,0,1-.572-.458c-.114-.343.114-.572.458-.687s8.243-2.175,15.113-.572a.584.584,0,1,1-.229,1.145c-6.64-1.6-14.54.458-14.655.572ZM39.5,46.094c-.229,0-.458-.114-.458-.343a.759.759,0,0,1,.229-.8,91.2,91.2,0,0,1,10.419-4.58.543.543,0,1,1,.343,1.03,75.122,75.122,0,0,0-10.19,4.58A.421.421,0,0,1,39.5,46.094ZM12.021,43.8a.584.584,0,0,1-.572-.458c-.114-.343.114-.572.458-.687s8.243-2.175,15.113-.572a.584.584,0,1,1-.229,1.145c-6.64-1.6-14.54.458-14.655.572ZM39.5,39.225c-.229,0-.458-.114-.458-.343a.759.759,0,0,1,.229-.8A91.2,91.2,0,0,1,49.689,33.5a.543.543,0,1,1,.343,1.03,75.122,75.122,0,0,0-10.19,4.58A.421.421,0,0,1,39.5,39.225Zm-27.478-2.29a.584.584,0,0,1-.572-.458c-.115-.343.114-.572.458-.687s8.243-2.175,15.113-.572a.584.584,0,1,1-.229,1.145c-6.64-1.6-14.54.458-14.655.572ZM39.5,32.355c-.229,0-.458-.114-.458-.343a.759.759,0,0,1,.229-.8,91.2,91.2,0,0,1,10.419-4.58.543.543,0,1,1,.343,1.03,75.122,75.122,0,0,0-10.19,4.58A.421.421,0,0,1,39.5,32.355Zm-27.478-2.29a.584.584,0,0,1-.572-.458c-.114-.343.114-.572.458-.687s8.243-2.175,15.113-.572a.584.584,0,1,1-.229,1.145c-6.64-1.6-14.54.458-14.655.572ZM39.5,25.486c-.229,0-.458-.114-.458-.343a.759.759,0,0,1,.229-.8,91.2,91.2,0,0,1,10.419-4.58.543.543,0,1,1,.343,1.03,75.122,75.122,0,0,0-10.19,4.58A.421.421,0,0,1,39.5,25.486ZM12.021,23.2a.584.584,0,0,1-.572-.458c-.114-.343.114-.572.458-.687s8.243-2.175,15.113-.572a.584.584,0,1,1-.229,1.145c-6.64-1.6-14.54.458-14.655.572ZM39.5,18.616c-.229,0-.458-.114-.458-.343a.759.759,0,0,1,.229-.8,91.2,91.2,0,0,1,10.419-4.58.543.543,0,1,1,.343,1.03,75.122,75.122,0,0,0-10.19,4.58A.421.421,0,0,1,39.5,18.616Z" transform="translate(0 0)"/></g></svg>