<svg xmlns="http://www.w3.org/2000/svg" xmlns:xlink="http://www.w3.org/1999/xlink" viewBox="0 0 95.282 95.283"><defs><style>.a{fill:url(#a);}</style><linearGradient id="a" x1="0.5" y1="-0.245" x2="0.5" y2="2.041" gradientUnits="objectBoundingBox"><stop offset="0" stop-color="#d25200"/><stop offset="1" stop-color="#ffcc40"/></linearGradient></defs><g transform="translate(-0.002)"><g transform="translate(0.002 0)"><g transform="translate(0 0)"><path class="a" d="M290.3,204.928a1.59,1.59,0,0,0,2.138.694c.094-.048,9.441-4.8,14.051-6.252a1.589,1.589,0,0,0-.959-3.03c-4.856,1.536-14.14,6.252-14.534,6.452A1.589,1.589,0,0,0,290.3,204.928Z" transform="translate(-236.138 -159.742)"/><path class="a" d="M291.721,103.4a1.585,1.585,0,0,0,.72-.173c.094-.048,9.441-4.8,14.051-6.252a1.589,1.589,0,0,0-.959-3.03c-4.856,1.536-14.14,6.252-14.534,6.452a1.587,1.587,0,0,0,.722,3Z" transform="translate(-236.138 -76.399)"/><path class="a" d="M93.7,23.821a1.588,1.588,0,0,0-1.588,1.588V87.342a4.77,4.77,0,0,1-4.764,4.764H49.231V88.453a46.8,46.8,0,0,1,14.292-2.7,81.911,81.911,0,0,1,23.32,3.1,1.588,1.588,0,0,0,2.088-1.507V17.469a1.586,1.586,0,0,0-1.244-1.55s-1.245-.278-3.373-.669a1.588,1.588,0,0,0-.575,3.124c.812.149,1.491.281,2.015.386V85.232a89.683,89.683,0,0,0-22.233-2.654A49.89,49.89,0,0,0,47.7,85.621,37.2,37.2,0,0,0,33.35,82.578,107.013,107.013,0,0,0,9.53,85.3V18.7a104.529,104.529,0,0,1,23.82-2.817,34.431,34.431,0,0,1,12.7,2.617V80.99a1.588,1.588,0,0,0,2.406,1.361c.157-.094,15.891-9.492,29.857-14.146A1.588,1.588,0,0,0,79.4,66.7V1.589A1.59,1.59,0,0,0,77.256.1,168.93,168.93,0,0,0,51.565,12.946a1.588,1.588,0,1,0,1.683,2.693A169.734,169.734,0,0,1,76.227,3.911V65.561c-10.84,3.767-22.158,9.917-27,12.671V17.469a1.589,1.589,0,0,0-.878-1.421,36.772,36.772,0,0,0-15-3.343A103.067,103.067,0,0,0,7.505,15.943a1.587,1.587,0,0,0-1.151,1.526V87.343a1.587,1.587,0,0,0,1.588,1.588,1.565,1.565,0,0,0,.435-.062,102.012,102.012,0,0,1,24.973-3.114,34.355,34.355,0,0,1,12.7,2.619v3.733H7.942a4.77,4.77,0,0,1-4.764-4.764V25.409a1.588,1.588,0,1,0-3.176,0V87.343a7.949,7.949,0,0,0,7.94,7.94h79.4a7.949,7.949,0,0,0,7.94-7.94V25.409A1.588,1.588,0,0,0,93.7,23.821Z" transform="translate(-0.002 0)"/><path class="a" d="M290.3,153.728a1.59,1.59,0,0,0,2.138.694c.094-.048,9.441-4.8,14.051-6.252a1.589,1.589,0,0,0-.959-3.03c-4.856,1.536-14.14,6.252-14.534,6.452A1.589,1.589,0,0,0,290.3,153.728Z" transform="translate(-236.138 -118.07)"/><path class="a" d="M290.3,256.128a1.59,1.59,0,0,0,2.138.694c.094-.048,9.441-4.8,14.051-6.252a1.589,1.589,0,0,0-.959-3.03c-4.856,1.536-14.14,6.252-14.534,6.452A1.589,1.589,0,0,0,290.3,256.128Z" transform="translate(-236.138 -201.413)"/><path class="a" d="M107.928,154.523c-9.806-2.3-20.949.63-21.418.756a1.588,1.588,0,0,0,.41,3.122,1.614,1.614,0,0,0,.413-.054c.106-.03,10.835-2.852,19.871-.732a1.588,1.588,0,1,0,.724-3.092Z" transform="translate(-69.453 -125.052)"/><path class="a" d="M107.928,205.726c-9.806-2.3-20.949.631-21.418.756a1.588,1.588,0,0,0,.41,3.122,1.614,1.614,0,0,0,.413-.054c.106-.03,10.835-2.852,19.871-.732a1.588,1.588,0,1,0,.724-3.092Z" transform="translate(-69.453 -166.727)"/><path class="a" d="M290.3,307.328a1.59,1.59,0,0,0,2.138.694c.094-.048,9.441-4.8,14.051-6.252a1.589,1.589,0,0,0-.959-3.03c-4.856,1.536-14.14,6.252-14.534,6.452A1.589,1.589,0,0,0,290.3,307.328Z" transform="translate(-236.138 -243.085)"/><path class="a" d="M107.928,256.925c-9.806-2.3-20.949.629-21.418.756a1.589,1.589,0,0,0,.41,3.124,1.606,1.606,0,0,0,.413-.056c.106-.03,10.835-2.852,19.871-.732a1.588,1.588,0,1,0,.724-3.092Z" transform="translate(-69.453 -208.397)"/><path class="a" d="M107.928,359.323c-9.806-2.3-20.949.631-21.418.756a1.589,1.589,0,0,0,.41,3.124,1.607,1.607,0,0,0,.413-.056c.106-.03,10.835-2.852,19.871-.732a1.588,1.588,0,1,0,.724-3.092Z" transform="translate(-69.453 -291.739)"/><path class="a" d="M107.928,308.122c-9.806-2.3-20.949.629-21.418.756A1.589,1.589,0,0,0,86.92,312a1.608,1.608,0,0,0,.413-.056c.106-.03,10.835-2.852,19.871-.732a1.588,1.588,0,1,0,.724-3.092Z" transform="translate(-69.453 -250.066)"/></g></g></g></svg>