<svg xmlns="http://www.w3.org/2000/svg" xmlns:xlink="http://www.w3.org/1999/xlink" viewBox="0 0 63.876 69.403"><defs><style>.a{fill:url(#a);}.b{fill:url(#b);}.c{fill:url(#c);}.d{fill:url(#d);}.e{fill:url(#e);}.f{fill:url(#f);}.g{fill:url(#g);}.h{fill:url(#h);}</style><linearGradient id="a" x1="0.24" y1="-2.757" x2="1.047" y2="-4.102" gradientUnits="objectBoundingBox"><stop offset="0" stop-color="#ffc200"/><stop offset="0.268" stop-color="#fb0"/><stop offset="0.659" stop-color="#ffa801"/><stop offset="1" stop-color="#ff9102"/></linearGradient><linearGradient id="b" x1="1.041" y1="-3.495" x2="-0.034" y2="-2.42" gradientUnits="objectBoundingBox"><stop offset="0" stop-color="#ffc200" stop-opacity="0"/><stop offset="0.203" stop-color="#fb0" stop-opacity="0.204"/><stop offset="0.499" stop-color="#ffa700" stop-opacity="0.498"/><stop offset="0.852" stop-color="#f80" stop-opacity="0.851"/><stop offset="1" stop-color="#ff7800"/></linearGradient><linearGradient id="c" x1="0.34" y1="-1.59" x2="0.832" y2="-5.73" xlink:href="#a"/><linearGradient id="d" x1="0.308" y1="0.835" x2="0.841" y2="0.276" xlink:href="#a"/><linearGradient id="e" x1="0.635" y1="-8.226" x2="-0.121" y2="-9.433" xlink:href="#b"/><linearGradient id="f" x1="0.407" y1="0.347" x2="0.488" y2="0.266" gradientUnits="objectBoundingBox"><stop offset="0" stop-color="#d63305"/><stop offset="0.366" stop-color="#cf3004"/><stop offset="0.899" stop-color="#bc2602"/><stop offset="1" stop-color="#b72401"/></linearGradient><linearGradient id="g" x1="0.212" y1="2.956" x2="0.513" y2="2.679" gradientUnits="objectBoundingBox"><stop offset="0" stop-color="#1aceb8"/><stop offset="1" stop-color="#0bbfba"/></linearGradient><linearGradient id="h" x1="0.103" y1="3.099" x2="0.562" y2="2.669" xlink:href="#g"/></defs><g transform="translate(-20.387 0)"><circle class="a" cx="7.312" cy="7.312" r="7.312" transform="translate(47.063 54.779)"/><path class="b" d="M224.705,404.113a7.312,7.312,0,0,0-7.279,6.632l7.96,7.96a7.312,7.312,0,0,0-.681-14.592Z" transform="translate(-170.33 -349.334)"/><path class="c" d="M104.488,363.984H56.565a5.926,5.926,0,0,0,0,11.852h47.923a5.926,5.926,0,0,0,0-11.852Z" transform="translate(-26.152 -314.645)"/><path class="d" d="M131.042,72.332V60.453a20.537,20.537,0,0,0-15.511-19.911,5.823,5.823,0,1,0-10.041,0A20.535,20.535,0,0,0,89.981,60.453v11.88a4.657,4.657,0,0,1-4.657,4.657H135.7A4.655,4.655,0,0,1,131.042,72.332ZM110.51,39.921a2.328,2.328,0,1,1,2.329-2.327A2.328,2.328,0,0,1,110.51,39.921Z" transform="translate(-56.135 -27.464)"/><path class="e" d="M51.183,416.391a5.48,5.48,0,0,0,5.853,4.726h47.923a5.481,5.481,0,0,0,5.853-4.726Z" transform="translate(-26.622 -359.948)"/><path class="f" d="M72.163,167.713h0a2.335,2.335,0,0,1,0-3.3l47.4-47.4a2.335,2.335,0,0,1,3.3,0h0a2.335,2.335,0,0,1,0,3.3l-47.4,47.4A2.334,2.334,0,0,1,72.163,167.713Z" transform="translate(-44.167 -100.557)"/><path class="g" d="M85.033,52.624a29.245,29.245,0,0,0-12.6,14.086,2.3,2.3,0,0,0,1.252,3.01l.067.028a2.308,2.308,0,0,0,3-1.255A24.535,24.535,0,0,1,87.316,56.7a2.3,2.3,0,0,0,1.011-2.86l-.027-.068A2.3,2.3,0,0,0,85.033,52.624Z" transform="translate(-44.833 -45.234)"/><path class="h" d="M37.363.273a36.891,36.891,0,0,0-16.794,18.28,2.332,2.332,0,0,0,1.269,3.06h0a2.332,2.332,0,0,0,3.034-1.252A32.192,32.192,0,0,1,39.563,4.389,2.326,2.326,0,0,0,40.63,1.462h0A2.339,2.339,0,0,0,37.363.273Z"/></g></svg>