<svg xmlns="http://www.w3.org/2000/svg" viewBox="0 0 75.302 72.169"><defs><style>.a{fill:#ffdc64;}.b{fill:#fff082;}.c{fill:#ffc850;}</style></defs><g transform="translate(0 -10.652)"><path class="a" d="M113.158,43.049,94.064,41.278,86.48,23.666a1.53,1.53,0,0,0-2.81,0L76.085,41.278,56.992,43.049a1.53,1.53,0,0,0-.868,2.673L70.529,58.377,66.313,77.083a1.53,1.53,0,0,0,2.274,1.652l16.488-9.79,16.488,9.79a1.53,1.53,0,0,0,2.274-1.652L99.62,58.377l14.406-12.655A1.53,1.53,0,0,0,113.158,43.049Z" transform="translate(-47.424 -10.311)"/><g transform="translate(1.104 11.757)"><path class="b" d="M98.213,19.153c.973,1.352,3.721,7.158,5.291,10.542a.531.531,0,0,1-.847.609c-2.711-2.563-7.345-7.01-8.319-8.362a2.387,2.387,0,0,1,3.874-2.789Z" transform="translate(-81.185 -18.161)"/><path class="b" d="M357.719,19.153c-.973,1.352-3.721,7.158-5.291,10.542a.531.531,0,0,0,.847.609c2.711-2.563,7.345-7.01,8.319-8.362a2.387,2.387,0,0,0-3.874-2.789Z" transform="translate(-301.653 -18.161)"/><path class="b" d="M422.245,283.783c-1.584-.517-7.95-1.37-11.651-1.838a.531.531,0,0,0-.323.992c3.265,1.8,8.911,4.868,10.495,5.385a2.387,2.387,0,1,0,1.48-4.538Z" transform="translate(-350.798 -243.145)"/><path class="b" d="M9.154,283.783c1.584-.517,7.95-1.37,11.651-1.838a.531.531,0,0,1,.323.992c-3.265,1.8-8.911,4.868-10.495,5.385a2.387,2.387,0,1,1-1.48-4.538Z" transform="translate(-7.506 -243.145)"/><path class="b" d="M240.27,407.571c0-1.666,1.163-7.983,1.865-11.647a.531.531,0,0,1,1.043,0c.7,3.664,1.865,9.981,1.865,11.647a2.387,2.387,0,1,1-4.774,0Z" transform="translate(-206.036 -339.996)"/></g><path class="c" d="M89.238,30.071l-2.758-6.4a1.53,1.53,0,0,0-2.81,0L76.085,41.278,56.992,43.049a1.53,1.53,0,0,0-.868,2.673L70.529,58.377,66.313,77.083a1.53,1.53,0,0,0,2.274,1.652l2.194-1.3A118.78,118.78,0,0,1,89.238,30.071Z" transform="translate(-47.424 -10.311)"/><path d="M156.332,109.882l13.913-12.223a2.633,2.633,0,0,0-1.495-4.6l-18.441-1.71-3.453-8.019a1.1,1.1,0,0,0-2.026.872l3.712,8.62a1.1,1.1,0,0,0,.911.662l19.093,1.771a.427.427,0,0,1,.242.746l-14.406,12.655a1.1,1.1,0,0,0-.348,1.071l4.216,18.706a.427.427,0,0,1-.634.461l-16.488-9.79a1.1,1.1,0,0,0-1.126,0l-16.487,9.79a.427.427,0,0,1-.635-.461l2.176-9.656a1.1,1.1,0,1,0-2.152-.485l-2.176,9.656a2.645,2.645,0,0,0,2.565,3.219,2.634,2.634,0,0,0,1.348-.376l15.924-9.456,15.924,9.456a2.633,2.633,0,0,0,3.913-2.843Z" transform="translate(-102.916 -61.42)"/><path d="M48.985,40.154,62.9,52.377l-.9,4.013a1.1,1.1,0,1,0,2.152.485l1.048-4.652a1.1,1.1,0,0,0-.348-1.071L50.441,38.5a.427.427,0,0,1,.242-.746L69.776,35.98a1.1,1.1,0,0,0,.911-.662l7.584-17.611a.427.427,0,0,1,.784,0l2.06,4.783a1.1,1.1,0,0,0,2.026-.873l-2.06-4.783a2.633,2.633,0,0,0-4.837,0L68.92,33.844l-18.441,1.71a2.633,2.633,0,0,0-1.495,4.6Z" transform="translate(-41.013 -3.915)"/><path d="M97.5,26.573a1.1,1.1,0,0,0,1.756-1.264c-.52-1.144-5.122-11.236-6.539-13.2h0a3.49,3.49,0,0,0-5.665,4.078C88.471,18.151,96.581,25.717,97.5,26.573ZM89.136,13.1a1.274,1.274,0,0,1,.747-.242,1.3,1.3,0,0,1,.209.017,1.276,1.276,0,0,1,.836.517h0A82.526,82.526,0,0,1,94.822,21a82.609,82.609,0,0,1-5.978-6.106A1.285,1.285,0,0,1,89.136,13.1Z" transform="translate(-73.69)"/><path d="M337.951,26.664a1.1,1.1,0,0,0,1.4-.088c.92-.856,9.03-8.421,10.448-10.39a3.49,3.49,0,0,0-5.665-4.078c-1.418,1.969-6.019,12.06-6.539,13.2A1.1,1.1,0,0,0,337.951,26.664Zm7.97-13.267h0a1.275,1.275,0,0,1,.835-.517,1.305,1.305,0,0,1,.209-.017A1.284,1.284,0,0,1,348,14.9,82.66,82.66,0,0,1,342.027,21,82.617,82.617,0,0,1,345.921,13.4Z" transform="translate(-287.856 -0.003)"/><path d="M406.018,276.17a3.467,3.467,0,0,0-2.029-1.737h0c-2.306-.752-13.319-2.07-14.567-2.218a1.1,1.1,0,0,0-.671,2.057c1.1.616,10.767,6.045,13.074,6.8a3.489,3.489,0,0,0,4.193-4.9Zm-1.891,1.979a1.283,1.283,0,0,1-1.618.822,82.654,82.654,0,0,1-7.634-3.84,82.562,82.562,0,0,1,8.43,1.4,1.284,1.284,0,0,1,.822,1.618Z" transform="translate(-331.097 -223.087)"/><path d="M18.155,272.968a1.1,1.1,0,0,0-1.178-.753c-1.248.148-12.261,1.466-14.567,2.218h0a3.49,3.49,0,1,0,2.164,6.636c2.307-.752,11.978-6.18,13.074-6.8A1.1,1.1,0,0,0,18.155,272.968Zm-14.266,6a1.284,1.284,0,0,1-.8-2.441,82.623,82.623,0,0,1,8.43-1.4A82.554,82.554,0,0,1,3.889,278.971Z" transform="translate(0 -223.086)"/><path d="M236.259,372.751a1.1,1.1,0,0,0-1.082.887c-.246,1.232-2.408,12.111-2.408,14.537a3.49,3.49,0,1,0,6.98,0c0-2.426-2.162-13.3-2.408-14.537A1.1,1.1,0,0,0,236.259,372.751Zm0,16.707a1.285,1.285,0,0,1-1.284-1.284,82.619,82.619,0,0,1,1.284-8.448,82.625,82.625,0,0,1,1.284,8.448A1.285,1.285,0,0,1,236.259,389.458Z" transform="translate(-198.535 -308.843)"/></g></svg>