<svg xmlns="http://www.w3.org/2000/svg" xmlns:xlink="http://www.w3.org/1999/xlink" viewBox="0 0 318.549 687.034"><defs><style>.a{fill:#e5e5e4;}.b{fill:#f48138;}.c{fill:#fcfefe;}.d{filter:url(#a);}</style><filter id="a" x="36.412" y="0" width="247.063" height="138.371" filterUnits="userSpaceOnUse"><feOffset dy="3" input="SourceAlpha"/><feGaussianBlur stdDeviation="3" result="b"/><feFlood flood-opacity="0.161"/><feComposite operator="in" in2="b"/><feComposite in="SourceGraphic"/></filter></defs><g transform="translate(0 6)"><path class="a" d="M684.752,725.439H454.369a9.927,9.927,0,0,1-9.968-9.969v-544.5A9.927,9.927,0,0,1,454.369,161H684.752a9.927,9.927,0,0,1,9.969,9.968v544.5A10.07,10.07,0,0,1,684.752,725.439Z" transform="translate(-411.836 -160.705)"/><path class="b" d="M735.4,721.914H439.669a9.927,9.927,0,0,1-9.969-9.969V176.969A9.927,9.927,0,0,1,439.669,167H735.4a9.927,9.927,0,0,1,9.969,9.969V711.945A9.927,9.927,0,0,1,735.4,721.914Z" transform="translate(-429.7 -153.413)"/><path class="b" d="M736.7,513.628H440.969A9.927,9.927,0,0,1,431,503.659V440.969A9.927,9.927,0,0,1,440.969,431H736.7a9.927,9.927,0,0,1,9.969,9.969v62.691A9.927,9.927,0,0,1,736.7,513.628Z" transform="translate(-428.12 167.406)"/><g class="d" transform="matrix(1, 0, 0, 1, 0, -6)"><path class="c" d="M450.2,161.162s11.519,6.424,12.184,19.715c.665,13.956,1.108,87.5,1.108,87.5s1.772,13.291,17.279,12.848H651.342s16.614-2.437,17.722-13.07V178.884a24.458,24.458,0,0,1,4.43-13.291c1.551-2.215,2.658-4.209,5.538-4.43C687.672,160.5,450.2,161.162,450.2,161.162Z" transform="translate(-404.79 -154.87)"/></g></g></svg>